# xmcd
#
# Track frame offsets:
#	150
#	16285
#	29585
#	42962
#	53620
#	67575
#	76715
#	90807
#	100945
#	116902
#	129405
#	144365
#
# Disc length: 2052 seconds
#
# Revision: 0
# Processed by: cddbd v1.5.2PL0 Copyright (c) Steve Scherf et al.
# Submitted via: dBpowerAMP V4.0
#
DISCID=8808020c
DTITLE=Amilton Lelo - As boas de
DYEAR=1900
DGENRE=Sertanejo
TTITLE0=Eu preciso de você
TTITLE1=Ontem eu chorei demais
TTITLE2=Destino cruel
TTITLE3=Gostei tanto de você
TTITLE4=Onde estás
TTITLE5=Sem você eu não sou gente
TTITLE6=Boa noite amor de minha vida
TTITLE7=Casinha pobrezinha
TTITLE8=Vou vender meu coração
TTITLE9=Noite triste
TTITLE10=Não devemos negar a verdade
TTITLE11=Não tenho medo da morte
EXTD=
EXTT0=
EXTT1=
EXTT2=
EXTT3=
EXTT4=
EXTT5=
EXTT6=
EXTT7=
EXTT8=
EXTT9=
EXTT10=
EXTT11=
PLAYORDER=
